<svg id="Layer_1" data-name="Layer 1" xmlns="http://www.w3.org/2000/svg" viewBox="0 0 1024 1024"><defs><style>.cls-1{fill:#e61b73;}.cls-2{fill:#e84e1b;}.cls-3{fill:#f29100;}.cls-4{fill:#39a935;}.cls-5{fill:#9f2ee8;}.cls-6{fill:#ee7907;}.cls-7{fill:#c00b66;}.cls-8{fill:#8119d1;}.cls-9{fill:#1d9138;}.cls-10{fill:#d62d16;}.cls-11{fill:#e7b2c8;}.cls-12{fill:#876945;}.cls-13{fill:#97794d;}.cls-14{fill:#b59e7e;}.cls-15{fill:#1d1e1c;}.cls-16{fill:#fff;}.cls-17{fill:#917047;}.cls-18{fill:#dca5bf;}.cls-19{fill:#724712;}</style></defs><circle class="cls-1" cx="88.69" cy="660.61" r="88.69"/><circle class="cls-2" cx="266.08" cy="660.61" r="88.69"/><circle class="cls-3" cx="443.47" cy="660.61" r="88.69"/><circle class="cls-4" cx="620.86" cy="660.61" r="88.69"/><circle class="cls-5" cx="177.39" cy="507.95" r="88.69"/><circle class="cls-4" cx="354.78" cy="507.95" r="88.69"/><circle class="cls-5" cx="532.17" cy="507.95" r="88.69"/><circle class="cls-3" cx="266.08" cy="355.18" r="88.69"/><circle class="cls-1" cx="443.47" cy="355.18" r="88.69"/><path class="cls-6" d="M325.71,420.85q-2.71,2.47-5.7,4.75A88.69,88.69,0,0,1,212.17,284.76c2-1.52,4-2.95,6.08-4.27A88.7,88.7,0,0,0,325.71,420.85Z"/><path class="cls-6" d="M354.84,655.56q.21-3.66.74-7.38a88.69,88.69,0,1,1,175.63,24.89c-.35,2.48-.79,4.92-1.34,7.3a88.7,88.7,0,0,0-175-24.81Z"/><path class="cls-7" d="M518.58,308c1.3,2.07,2.52,4.23,3.67,6.45a88.69,88.69,0,1,1-157.59,81.42q-1.73-3.33-3.14-6.73A88.7,88.7,0,0,0,518.58,308Z"/><path class="cls-8" d="M594.21,571.34c-1.75,1.72-3.59,3.37-5.52,5a88.7,88.7,0,0,1-113-136.71q2.89-2.4,5.91-4.49A88.7,88.7,0,0,0,594.21,571.34Z"/><path class="cls-9" d="M313,429.71c2.16-1.15,4.4-2.22,6.7-3.21a88.69,88.69,0,1,1,70.11,162.94q-3.45,1.48-6.93,2.66A88.7,88.7,0,0,0,313,429.71Z"/><path class="cls-9" d="M565.86,730.21q-2.88-2.28-5.62-4.85A88.69,88.69,0,1,1,681.48,595.87c1.82,1.71,3.56,3.47,5.2,5.29A88.7,88.7,0,0,0,565.86,730.21Z"/><path class="cls-8" d="M238.42,443.59q2.67,2.52,5.17,5.33A88.7,88.7,0,0,1,111.19,567c-1.66-1.87-3.24-3.78-4.71-5.74A88.7,88.7,0,0,0,238.42,443.59Z"/><path class="cls-10" d="M186.94,700.64c-1.11-2.18-2.13-4.44-3.06-6.76A88.69,88.69,0,1,1,348.33,627.4c.94,2.32,1.78,4.65,2.5,7a88.7,88.7,0,0,0-163.89,66.25Z"/><path class="cls-7" d="M16.19,609.52c1.4-2,2.92-4,4.53-5.88a88.69,88.69,0,1,1,135.94,114c-1.61,1.92-3.27,3.75-5,5.49A88.69,88.69,0,0,0,16.19,609.52Z"/><path class="cls-11" d="M934.65,673.32q-3.39,3.39-6.84,6.74l-3.45,3.36-1.72,1.68-1.78,1.62c-4.79,4.26-9.49,8.65-14.52,12.67A248.1,248.1,0,0,1,874.8,722c-11.19,6.66-23.19,12.39-36.27,15.76-.81.21-1.62.46-2.45.63l-2.5.48c-1.67.29-3.33.67-5,.88l-5.14.5-1.28.11h-1.3l-2.61,0A64.68,64.68,0,0,1,797.46,737c-6.78-2.25-12.82-5.84-18.27-8.89a77.08,77.08,0,0,0-16.07-7.28,73.65,73.65,0,0,0-17.12-3,84,84,0,0,0-17.55.8,116.85,116.85,0,0,0-34,11,175.36,175.36,0,0,0-16,9l-4.09,2.56c-1.49.87-3,1.79-4.49,2.61q-4.54,2.47-9.23,4.54c-12.52,5.46-25.49,8.8-38.45,11.27a327,327,0,0,1-39,4.46q-19.48,1.07-38.88.53c-3.23,0-6.46-.2-9.68-.31s-6.45-.26-9.67-.45c-6.44-.33-12.86-.84-19.28-1.32s-12.83-1.12-19.22-1.82-12.77-1.43-19.15-2.21c-12.73-1.67-25.44-3.48-38.09-5.62-25.29-4.3-50.44-9.17-75.35-15.2,25.5,2.51,50.9,5.29,76.34,7.38,12.7,1.14,25.42,2,38.11,2.93s25.4,1.48,38.09,1.94c25.36.8,50.72.93,75.76-1A329.51,329.51,0,0,0,619.23,744c12.11-2.38,24-5.56,34.95-10.38,2.74-1.19,5.4-2.49,8-3.88,1.3-.69,2.53-1.46,3.81-2.18l4-2.51a177.56,177.56,0,0,1,17.53-9.65,128.64,128.64,0,0,1,38.86-11.8,98.71,98.71,0,0,1,20.7-.42,83.5,83.5,0,0,1,20.42,4.28A88.7,88.7,0,0,1,786,716.57c5.54,3.44,10.45,6.61,15.76,8.63,10.59,4.14,22.63,4.63,34.49,2.27s23.56-6.82,34.78-12.38l4.23-2.07c1.41-.7,2.76-1.51,4.14-2.26l4.14-2.3c1.38-.76,2.77-1.51,4.1-2.37l8.08-5c1.37-.8,2.65-1.73,4-2.6l4-2.64c5.36-3.43,10.43-7.3,15.63-11S929.49,677.12,934.65,673.32Z"/><path class="cls-11" d="M904.11,739.91h41.47A4.12,4.12,0,0,1,949.7,744v.85a.44.44,0,0,1-.44.44H904.11a1.29,1.29,0,0,1-1.29-1.29V741.2A1.29,1.29,0,0,1,904.11,739.91Z"/><ellipse class="cls-12" cx="906.42" cy="432.51" rx="66.66" ry="53.77" transform="translate(274.22 1212.89) rotate(-76.5)"/><path class="cls-13" d="M914,745.59H853.74a40.41,40.41,0,0,1-40.15-45.05,478.09,478.09,0,0,0,13.93-120.6c-.18-13.64-.94-26.65-2.13-39,4.77-3.1,28.37-17.75,58.42-11.19,40.52,8.85,55.4,48.1,56.35,50.74L953,702.28A39.2,39.2,0,0,1,914,745.59Z"/><path class="cls-13" d="M797.05,541.37c18.92,12.31,49.48,11.68,71.36,14.33,17.81,2.17,42.64,8,71.75,24.81l-14.79-78.63a207,207,0,0,1-22.75-65.79c-25.78-3.48-43.29,2.69-52,6.73-15.16,7-26.5,17.9-31.3,22.52-13,12.54-17.16,21.61-32.17,31.58a93.46,93.46,0,0,1-17.64,9.19l-.35,4.82,5.71,9.39A86.61,86.61,0,0,0,797.05,541.37Z"/><path class="cls-14" d="M922.9,726.91H890.6c-13,0-23-14.22-21.53-30.44L876.54,615c1.77-19.32,14.75-33.9,30.18-33.9h0c15.55,0,28.59,14.8,30.21,34.29l6.87,82.29C945.11,713.29,935.38,726.91,922.9,726.91Z"/><path class="cls-14" d="M778,524.29c5-.17,12.33-.28,21.12.09,34.14,1.43,81.69,3.42,111.63,34.13,7.32,7.51,18.89,22.18,24.61,47.87l-59.1,12.2c.53-4.78,2.78-29.26-14.41-49a58.32,58.32,0,0,0-12.94-11.08,40.31,40.31,0,0,0-18-5.84,76.91,76.91,0,0,1-53-28.37Z"/><circle class="cls-15" cx="848.45" cy="478.65" r="5.74"/><circle class="cls-16" cx="850.41" cy="476.13" r="0.98"/><path class="cls-16" d="M829.7,500.45a40,40,0,0,1,11.62-.31,43.74,43.74,0,0,1,5.77,1.08,46.06,46.06,0,0,1,5.57,1.86,42.82,42.82,0,0,1,10.1,5.92,39.75,39.75,0,0,1,8,8.46A60.45,60.45,0,0,0,862,510a52.94,52.94,0,0,0-10-5.45,53.56,53.56,0,0,0-10.91-3.19A62.2,62.2,0,0,0,829.7,500.45Z"/><path class="cls-16" d="M828.53,502.85a22.75,22.75,0,0,1,8,1.29,26.52,26.52,0,0,1,3.75,1.65,28.56,28.56,0,0,1,3.42,2.27,23.58,23.58,0,0,1,8.51,13.57,38.6,38.6,0,0,0-4.07-6.77,30.69,30.69,0,0,0-5.44-5.54,31,31,0,0,0-6.63-4A39.61,39.61,0,0,0,828.53,502.85Z"/><path class="cls-16" d="M826.44,505.4a18.66,18.66,0,0,1,7.41,3.19,19.91,19.91,0,0,1,5.55,6A21,21,0,0,1,842,522.4a20.76,20.76,0,0,1-.5,8.05,34,34,0,0,0-.74-7.84,25.15,25.15,0,0,0-2.76-7.17,23.43,23.43,0,0,0-4.93-5.86A28.41,28.41,0,0,0,826.44,505.4Z"/><path class="cls-12" d="M826.33,552.1a68.48,68.48,0,0,1,50.27,58.33c-.09-3.53-.92-26.06-14.8-41.4-.91-1-8.59-9.36-18.45-13.38a55.77,55.77,0,0,0-8.8-2.64A49.1,49.1,0,0,0,826.33,552.1Z"/><path class="cls-13" d="M896.76,399.2c1.82-1.54,32.24-26.38,63.37-12.81,17,7.4,24.66,22.08,26.73,26.43,10.28,21.66,4.28,46.37-7.84,62.73-19.12,25.81-50.13,26.33-53.65,26.33-7.14-10.63-15.06-21.7-23.82-33.05C892.34,456.92,883.19,446,874.31,436,876.25,428.42,881.63,412.07,896.76,399.2Z"/><path class="cls-11" d="M893.69,444.54a52.47,52.47,0,0,1,24.58,35.67c25.34-2.95,41.67-20.93,40.67-37-.63-10.1-8.21-21.35-19.37-25C926.67,413.88,915,421.62,910,425A49.36,49.36,0,0,0,893.69,444.54Z"/><circle class="cls-1" cx="935.31" cy="630.88" r="88.69"/><path class="cls-17" d="M922.79,638.65c-2,5.23-28.21,2-49.69-5.86a137.45,137.45,0,0,1-45.9-28.35q.46-11.73.32-24.5-.13-9.86-.64-19.06a430.35,430.35,0,0,0,56,47.6C907.28,625.87,924.44,634.25,922.79,638.65Z"/><rect class="cls-18" x="766.63" y="504.51" width="11.32" height="8.68" rx="4.34" transform="translate(1544.58 1017.7) rotate(180)"/><path class="cls-19" d="M778,524.29a20.06,20.06,0,0,0,6.87-3.58,17.08,17.08,0,0,0,2.62-2.75,26,26,0,0,0,2.11-3.37,9,9,0,0,1-1,4,10.55,10.55,0,0,1-2.66,3.32,11.05,11.05,0,0,1-3.74,2A9.29,9.29,0,0,1,778,524.29Z"/><path class="cls-7" d="M974.69,640.81c-2.71-.24-7.51,1.26-10.15,1.8-2.34.47-5.67,1.13-8.48-.6-1.24-.75-3.12-2.52-2.84-4.21s2.67-2.74,7.49-5c1-.49,1.38-.61,1.94-.86,2.55-1.17,9-4.11,10.33-9.68.73-3,0-7.11-2.72-9.47a9.5,9.5,0,0,0-6.12-2.06c-.68,0-2.52,0-6,1.59a27.68,27.68,0,0,0-9.77,7,21.86,21.86,0,0,0-5.25,8.78,19.48,19.48,0,0,0-.5,9,16.55,16.55,0,0,0,3.46,7.76,16.85,16.85,0,0,0,5.47,4.27,21.65,21.65,0,0,0,7.73,2.3c6.18.64,10.67-1.52,13.62-2.93,4.05-2,4.47-3.28,4.54-4a3.71,3.71,0,0,0-1.65-3.37A2.74,2.74,0,0,0,974.69,640.81Zm-23.42-11c-1.07-1.26,2.18-6.73,6.78-9,1.43-.73,4.25-1.86,5.08-.9s-1.16,4.19-1.32,4.42a11.18,11.18,0,0,1-3.61,3.26C956.76,628.39,952.23,630.89,951.27,629.77Z"/><rect class="cls-7" x="953.97" y="589.13" width="5.67" height="16.5" rx="2.79" transform="translate(-89.4 175.72) rotate(-10.03)"/><rect class="cls-7" x="966.96" y="589.59" width="5.67" height="16.5" rx="2.79" transform="translate(262.53 -295.3) rotate(19.97)"/><rect class="cls-7" x="942.59" y="593.9" width="5.67" height="16.5" rx="2.79" transform="translate(2056.65 455.18) rotate(139.97)"/><rect class="cls-7" x="935.44" y="603.79" width="5.67" height="16.5" rx="2.79" transform="translate(1857.47 -28.3) rotate(112.02)"/><rect class="cls-7" x="977.07" y="596.43" width="5.67" height="16.5" rx="2.79" transform="translate(772.06 -527.86) rotate(47.92)"/><path class="cls-6" d="M245.38,409.18a4.06,4.06,0,0,1-.87-2.5h0a7.2,7.2,0,0,1,1.53-4.13h0a11.16,11.16,0,0,1,3.28-3h0a5.14,5.14,0,0,1,2.39-.76h0a3.44,3.44,0,0,1,.46,0h0a4.4,4.4,0,0,1,2.66,1.33h0a3.57,3.57,0,0,1,.31.37h0c.07-.8.16-1.79.25-2.82h0c.2-2.43.4-5.11.39-5.93h0c0-.07,0-.13,0-.15h0a6.31,6.31,0,0,1-.22-1.35h0a1.52,1.52,0,0,1,.18-.81h0a1,1,0,0,1,.86-.49h0a2,2,0,0,1,2,2h0a2.07,2.07,0,0,1-.11.69h0s0,0,0,.08h0c0,.07,0,.18,0,.3h0c0,.26-.08.61-.13,1h0c-.09.84-.2,1.95-.3,3.18h0c-.19,2.24-.36,4.86-.42,6.81h0a2.28,2.28,0,0,1,.67.3h0a1.35,1.35,0,0,1,.48.68h0a2.38,2.38,0,0,1,.08.58h0a1.27,1.27,0,0,1-.25.8h0a1.38,1.38,0,0,1-.58.44h0c-.24.11-.49.19-.73.28h0a8.47,8.47,0,0,1,.13,1.35h0a3.17,3.17,0,0,1-.06.75h0a1.34,1.34,0,0,1-.39.74h0a.94.94,0,0,1-.64.26h-.14a2.1,2.1,0,0,1-1-.35h0a1.56,1.56,0,0,1-.55-.73h0a2.25,2.25,0,0,1-.09-.35h0c-.43.28-1,.63-1.66,1h0a11.56,11.56,0,0,1-4.84,1.57h0a3.19,3.19,0,0,1-2.63-1.16Zm3.42-5.84a6.2,6.2,0,0,0-1.61,3.41h0a.83.83,0,0,0,.21.64h0a1,1,0,0,0,.8.29h0a6.92,6.92,0,0,0,2.8-1h0c1-.55,2.05-1.24,3.05-1.87h0c0-.21-.11-.48-.2-.79h0a6.09,6.09,0,0,0-.94-2h0a1.57,1.57,0,0,0-.87-.6h0l-.24,0h0a4.93,4.93,0,0,0-3,2Zm12.78,4.07a11.82,11.82,0,0,1-1.52-3.59h0a30.06,30.06,0,0,1-.85-5.79h0c0-.08,0-.15,0-.23h0a1.54,1.54,0,0,1,.29-1h0a1.05,1.05,0,0,1,.86-.43h.23a1.54,1.54,0,0,1,1.16.75h0a2,2,0,0,1,.22.87h0v.72h0a24.35,24.35,0,0,0,.42,4.53h0a5.82,5.82,0,0,0,1,2.5h0c.25.28.41.34.59.34h0a.77.77,0,0,0,.39-.11h0a2.84,2.84,0,0,0,1.2-1.39h0a9.08,9.08,0,0,0,.66-2.25h0a21.3,21.3,0,0,0,.23-3.52h0v-.1h0a1.67,1.67,0,0,1,.2-.92h0a1.32,1.32,0,0,1,1.18-.63h.1a1.21,1.21,0,0,1,.83.34h0a1.68,1.68,0,0,1,.39.59h0a2.19,2.19,0,0,1,.18.72h0V399c0,.33-.11,1.75-.36,3.38h0a14.76,14.76,0,0,1-1.5,4.91h0a3.51,3.51,0,0,1-2.4,1.87h0a4.23,4.23,0,0,1-.48,0h0a3.62,3.62,0,0,1-3-1.75Zm11.4,2.53h-.25a1.57,1.57,0,0,1-1.09-.61h0a1.63,1.63,0,0,1-.25-.59h0l-.15,0h0a1.36,1.36,0,0,1-.82-.61h0l0,0v0a.82.82,0,0,1-.05-.17h0s0-.06,0-.08h0c0-.06,0-.12,0-.19h0q0-.22,0-.6h0c0-.49,0-1.16,0-1.93h0c0-1.61,0-3.65.18-5.35h0a1.68,1.68,0,0,1-.42-.92h0v0a.31.31,0,0,1,0-.1h0a1.34,1.34,0,0,1,.39-.9h0a2.44,2.44,0,0,1,.46-.39h0q0-.11.06-.27h0c.08-.34.17-.81.27-1.36h0a21.89,21.89,0,0,0,.37-3.62h0a1,1,0,0,1,0-.17h0a2.25,2.25,0,0,0-.11-.5h0a3.73,3.73,0,0,1-.16-.89h0a1.35,1.35,0,0,1,.27-.85h0a1.39,1.39,0,0,1,.92-.46h.12a1.22,1.22,0,0,1,.77.3h0a2.25,2.25,0,0,1,.5.63h0a4.21,4.21,0,0,1,.47,1.86h0v.19h0a10.41,10.41,0,0,1-.25,2.28h0c-.13.62-.28,1.31-.45,2.29h0a11.2,11.2,0,0,1,3.17.44h0a5.2,5.2,0,0,1,3.37,2.64h0a2.38,2.38,0,0,1,.23,1h0a4.69,4.69,0,0,1-.76,2.31h0a14,14,0,0,1-1.69,2.24h0a41.48,41.48,0,0,1-3.4,3.34h0l-.36.33h0a1.41,1.41,0,0,0-.26.32h0a1.31,1.31,0,0,1-.4.42h0a.93.93,0,0,1-.5.14h0Zm-.16-6.65a30.47,30.47,0,0,0,.21,3.22h0c.26-.22.58-.48.92-.78h0a18.31,18.31,0,0,0,2.86-3h0a3.44,3.44,0,0,0,.75-1.73h0a.75.75,0,0,0-.08-.35h0a2.26,2.26,0,0,0-1.35-.85h0a8.09,8.09,0,0,0-2.44-.34h0l-.52,0h0c0,.19-.07.43-.11.71h0a21.24,21.24,0,0,0-.24,2.5h0v.58Zm10,7.27a1.89,1.89,0,0,1-1-.33h0a1.15,1.15,0,0,1-.43-.66h0a4.92,4.92,0,0,1-.15-.78h0a22.47,22.47,0,0,1-.11-2.25h0c0-3.46.29-8.81.49-11.91h0c.1-1.58.16-2.92.23-4h0a11.74,11.74,0,0,1,.27-2.28h0a1.1,1.1,0,0,1,.27-.47h0a1.47,1.47,0,0,1,1-.43h0a1.81,1.81,0,0,1,1.24.62h0a1.39,1.39,0,0,1,.32.54h0a2.13,2.13,0,0,1,.09.67h0a25,25,0,0,1-.25,2.75h0c-.16,1.38-.39,3.35-.65,6.2h0c-.2,2.22-.28,4.49-.26,6.46h0c0,1.28.07,2.43.17,3.35h0v0c0,.12,0,.28,0,.45h0a3.5,3.5,0,0,1-.06.84h0a1.69,1.69,0,0,1-.42.89h0a1.09,1.09,0,0,1-.74.31h0Zm4.42-1.93.26-.56-.27.56a4.11,4.11,0,0,1-1.67-1.73h0a6,6,0,0,1-.75-2.87h0a6,6,0,0,1,.44-2.33h0a13.41,13.41,0,0,1,2.33-4h0a4.19,4.19,0,0,1,2.61-1.48h.23a4.09,4.09,0,0,1,2.53.94h0a5.48,5.48,0,0,1,1.92,3.43h0a7.7,7.7,0,0,1,.11,1.15h0a7.09,7.09,0,0,1-2.27,5.2h0a6.65,6.65,0,0,1-4.24,2h0a2.71,2.71,0,0,1-1.23-.24Zm3.44-9.64-.2.07h0a3.29,3.29,0,0,0-.77.5h0a7.59,7.59,0,0,0-2.09,3.61h0a3,3,0,0,0-.1.81h0a3.43,3.43,0,0,0,.31,1.43h0a1.28,1.28,0,0,0,.71.75h0a.71.71,0,0,0,.23,0h0a3.12,3.12,0,0,0,1.66-.79h0a4.88,4.88,0,0,0,1.26-1.47h0v0a5.65,5.65,0,0,0,.67-2.5h0a3.27,3.27,0,0,0-.36-1.49h0a2.17,2.17,0,0,0-.5-.75h0a1.47,1.47,0,0,0-.5-.23h0l-.29.05h0Zm-.17-.14.05-.46-.05.46Zm-55.81,4.5a10.27,10.27,0,0,1,1.79-2.13,11.78,11.78,0,0,1,4.93-2.35l.86.07a3.68,3.68,0,0,1,1.94.9,2.19,2.19,0,0,1,.46,2.21,3.76,3.76,0,0,1-1.83,2.44,8.59,8.59,0,0,1-3.28,1.2c-1.19.18-1.84.39-2,.65s0,.56.45.93a7.35,7.35,0,0,0,3,1,13.56,13.56,0,0,0,4,.24,14.75,14.75,0,0,0,2.59-.53c.68-.22,1.41.48,1.78.43s.64.17.81.67c-.77.85-1.77.6-2.6.94a14.11,14.11,0,0,1-3,.81,18.21,18.21,0,0,1-4.32.1l-1-.13a12.49,12.49,0,0,1-3.59-1.2,4.51,4.51,0,0,1-1.34-1.3,4.22,4.22,0,0,1-.5-2A7.4,7.4,0,0,1,234.69,403.35Zm2.74.89a9.67,9.67,0,0,0,3.22-1c.57-.39.84-.77.81-1.16s-.45-.42-1.27-.12a4.19,4.19,0,0,0-1.74,1A12.28,12.28,0,0,0,237.43,404.24Z"/><path class="cls-6" d="M289.93,419a12.31,12.31,0,0,1-6.23-3h0a1,1,0,0,1-.34-.72h0a1,1,0,0,1,0-.17h0a1.38,1.38,0,0,1,.41-.78h0a1.43,1.43,0,0,1,.81-.41h.15a1.13,1.13,0,0,1,.8.32h0a7.68,7.68,0,0,0,1.73,1.11h0a13.67,13.67,0,0,0,2,.8h0a14.39,14.39,0,0,0,3.12.56h0c.35,0,.69,0,1,0h0a11.45,11.45,0,0,0,2.11-.23h0a11.67,11.67,0,0,0,2.68-.85h0a6,6,0,0,0,2.73-3.1h0a16.17,16.17,0,0,0,.78-5.13h0a7.48,7.48,0,0,1-.55.71h0a6.12,6.12,0,0,1-1.14,1h0a4.36,4.36,0,0,1-1.75.73h0l-.32,0h0a2,2,0,0,1-.82-.18h0a2.8,2.8,0,0,1-.87-.6h0a4.2,4.2,0,0,1-1.18-2.77h0c0-.1,0-.21,0-.31h0a7.24,7.24,0,0,1,.55-2.89h0a19.09,19.09,0,0,1,1.5-2.92h0c.14-.23.4-.58.79-1.09h0a11.66,11.66,0,0,1,1.41-1.52h0a8.18,8.18,0,0,1,1.76-1.25h0a3,3,0,0,1,1.26-.34h0a2.72,2.72,0,0,1,.69.09h0a1,1,0,0,1,.38.18h0a.45.45,0,0,1,.18.34h0a.15.15,0,0,1,0,.07h0a1.23,1.23,0,0,1-.31.61h.1a2.08,2.08,0,0,1,.42,0h0c.73.11,1.21.53,1.21,1.17h0v.11h0c-.09,1.72-.18,3.44-.26,5.16h0c-.09,1.73-.27,3.44-.45,5.15h0a19.33,19.33,0,0,1-.87,4.33h0a8,8,0,0,1-.87,1.83h0a7.7,7.7,0,0,1-2.39,2.29h0a12,12,0,0,1-3.15,1.37h0a15.08,15.08,0,0,1-3.57.51h0a17.17,17.17,0,0,1-3.52-.31Zm11.95-20.39a5.24,5.24,0,0,0-.55.59h0l-.59.73h0a8.65,8.65,0,0,0-1,1.45h0c-.25.5-.5,1-.74,1.53h0a7.65,7.65,0,0,0-.94,3.21h0v0h0a3.22,3.22,0,0,0,.12.91h0c.06.18.13.25.18.26h0l0,0h0a.76.76,0,0,0,.16-.13h0a6.07,6.07,0,0,0,.47-.6h0a16.23,16.23,0,0,0,1.37-2.64h0a23.17,23.17,0,0,0,1-2.8h0c.26-.93.53-1.86.79-2.79h0c-.12.1-.23.19-.32.28Z"/><path class="cls-6" d="M307.75,409.55a6.31,6.31,0,0,1-2.08-1.89h0a.9.9,0,0,1-.18-.54h0a1,1,0,0,1,.06-.38h0a1.77,1.77,0,0,1,.54-.75h0a1.67,1.67,0,0,1,.83-.36H307a.85.85,0,0,1,.73.38h0a4.56,4.56,0,0,0,1.25,1.13h0a.88.88,0,0,0,.53.17h0a.77.77,0,0,0,.59-.32h0s0,0,0-.05h0l.05-.13h0a1.53,1.53,0,0,0,.09-.61h0v0h0a2.6,2.6,0,0,0-.23-.94h0a3,3,0,0,0-.92-1.13h0a7.78,7.78,0,0,0-.8-.58h0a3.82,3.82,0,0,1-.79-.71h0a3,3,0,0,1-.72-1.88h0a3.2,3.2,0,0,1,.05-.61h0a3.92,3.92,0,0,1,1.53-2.6h0a6.84,6.84,0,0,1,2.68-1.34h0l.21,0h0a.77.77,0,0,1,.61.27h0a.9.9,0,0,1,.25.62h0a.62.62,0,0,1,0,.19h0a1.64,1.64,0,0,1-1,1.23h0a4.09,4.09,0,0,0-.75.45h0a2.87,2.87,0,0,0-.7.69h0a1.39,1.39,0,0,0-.31.75h0v.06h0a.79.79,0,0,0,.36.6h0a9.53,9.53,0,0,0,.89.68h0a4.48,4.48,0,0,1,.89.8h0a10.12,10.12,0,0,1,.91,1.28h0a3.77,3.77,0,0,1,.52,1.52h0a4.38,4.38,0,0,1,0,.51h0a4.57,4.57,0,0,1-.45,2.08h0a3.26,3.26,0,0,1-2,1.72h0a4.14,4.14,0,0,1-1.12.2h0a3.21,3.21,0,0,1-1.7-.45Zm2.57-2.51v0Zm-.08-.06-.05-.05.05.05Z"/><path class="cls-6" d="M304.92,391.8c.2-.29.41-.57.83-.53a.65.65,0,0,1,.6.69,1.43,1.43,0,0,1-.24.59l-1.1,1.73c-.19.29-.4.57-.83.53a.65.65,0,0,1-.6-.69,1.43,1.43,0,0,1,.24-.59Z"/><path class="cls-6" d="M301,391.56c0-.36,0-.71.34-.93a.64.64,0,0,1,.89.19,1.28,1.28,0,0,1,.17.62l.15,2c0,.36,0,.71-.34.93a.64.64,0,0,1-.89-.19,1.28,1.28,0,0,1-.16-.61Z"/><path class="cls-6" d="M297.72,392.7a.87.87,0,0,1-.05-1,.64.64,0,0,1,.9-.17,1.35,1.35,0,0,1,.39.5l.94,1.82a.87.87,0,0,1,0,1,.64.64,0,0,1-.89.17,1.22,1.22,0,0,1-.39-.51Z"/><path class="cls-6" d="M297.67,395.33c.31.18.59.38.57.81a.65.65,0,0,1-.66.63,1.39,1.39,0,0,1-.6-.21l-1.76-1c-.31-.18-.59-.38-.57-.81a.64.64,0,0,1,.66-.62,1.17,1.17,0,0,1,.6.21Z"/><path class="cls-6" d="M307.64,394a.85.85,0,0,1,1-.15.64.64,0,0,1,.26.87,1.26,1.26,0,0,1-.45.44l-1.7,1.13a.87.87,0,0,1-1,.16.66.66,0,0,1-.26-.88,1.26,1.26,0,0,1,.45-.44Z"/></svg>